<svg xmlns="http://www.w3.org/2000/svg" xmlns:xlink="http://www.w3.org/1999/xlink" width="500" zoomAndPan="magnify" viewBox="0 0 375 374.999991" height="500" preserveAspectRatio="xMidYMid meet" version="1.0"><defs><g/><clipPath id="6e5d9b2f22"><path d="M 21 42 L 82.0625 42 L 82.0625 104 L 21 104 Z M 21 42 " clip-rule="nonzero"/></clipPath><clipPath id="419312ac2f"><path d="M 5.039062 80.179688 L 38.703125 80.179688 L 38.703125 114 L 5.039062 114 Z M 5.039062 80.179688 " clip-rule="nonzero"/></clipPath><clipPath id="0a56c461f1"><path d="M 14 37.5 L 39 37.5 L 39 62 L 14 62 Z M 14 37.5 " clip-rule="nonzero"/></clipPath></defs><rect x="-37.5" width="450" fill="#ffffff" y="-37.499999" height="449.999989" fill-opacity="1"/><rect x="-37.5" width="450" fill="#1c5866" y="-37.499999" height="449.999989" fill-opacity="1"/><g fill="#000000" fill-opacity="0.4"><g transform="translate(60.507255, 275.91765)"><g><path d="M 11.875 -171.703125 L 48.234375 -176.75 L 48.234375 -119.9375 C 52.773438 -123.132812 56.472656 -125.195312 59.328125 -126.125 C 62.191406 -127.050781 65.054688 -127.515625 67.921875 -127.515625 C 73.984375 -127.515625 79.492188 -126.207031 84.453125 -123.59375 C 89.421875 -120.988281 93.710938 -117.160156 97.328125 -112.109375 C 100.953125 -107.054688 103.773438 -100.785156 105.796875 -93.296875 C 107.816406 -85.804688 108.828125 -77.265625 108.828125 -67.671875 C 108.828125 -60.265625 108.066406 -52.476562 106.546875 -44.3125 C 105.035156 -36.144531 102.21875 -28.648438 98.09375 -21.828125 C 93.96875 -15.015625 88.328125 -9.421875 81.171875 -5.046875 C 74.023438 -0.671875 64.8125 1.515625 53.53125 1.515625 C 39.21875 1.515625 28.648438 -2.015625 21.828125 -9.078125 C 15.015625 -16.148438 11.609375 -25.664062 11.609375 -37.625 Z M 82.8125 -65.390625 C 82.8125 -79.023438 80.875 -89.710938 77 -97.453125 C 73.132812 -105.203125 67.921875 -109.078125 61.359375 -109.078125 C 59.335938 -109.078125 56.976562 -108.695312 54.28125 -107.9375 C 51.59375 -107.1875 49.578125 -106.050781 48.234375 -104.53125 L 48.234375 -37.875 C 48.234375 -32.488281 49.410156 -28.660156 51.765625 -26.390625 C 54.117188 -24.117188 57.148438 -22.984375 60.859375 -22.984375 C 65.234375 -22.984375 68.847656 -24.285156 71.703125 -26.890625 C 74.566406 -29.503906 76.796875 -32.867188 78.390625 -36.984375 C 79.992188 -41.109375 81.128906 -45.65625 81.796875 -50.625 C 82.472656 -55.59375 82.8125 -60.515625 82.8125 -65.390625 Z M 82.8125 -65.390625 "/></g></g></g><g fill="#000000" fill-opacity="0.4"><g transform="translate(172.614853, 275.91765)"><g><path d="M 115.890625 -176.75 L 115.890625 -40.40625 C 115.890625 -33.332031 116.859375 -28.660156 118.796875 -26.390625 C 120.734375 -24.117188 124.144531 -22.984375 129.03125 -22.984375 C 133.90625 -22.984375 137.984375 -25.085938 141.265625 -29.296875 C 144.554688 -33.503906 146.453125 -38.804688 146.953125 -45.203125 L 157.5625 -45.203125 C 156.21875 -34.929688 153.859375 -26.722656 150.484375 -20.578125 C 147.117188 -14.429688 143.332031 -9.71875 139.125 -6.4375 C 134.914062 -3.15625 130.625 -1.007812 126.25 0 C 121.875 1.007812 118.003906 1.515625 114.640625 1.515625 C 105.710938 1.515625 98.929688 -0.546875 94.296875 -4.671875 C 89.671875 -8.796875 86.4375 -14.476562 84.59375 -21.71875 C 83.238281 -18.851562 81.632812 -16.03125 79.78125 -13.25 C 77.9375 -10.476562 75.707031 -8 73.09375 -5.8125 C 70.488281 -3.625 67.457031 -1.851562 64 -0.5 C 60.550781 0.84375 56.554688 1.515625 52.015625 1.515625 C 46.628906 1.515625 41.328125 0.503906 36.109375 -1.515625 C 30.890625 -3.535156 26.132812 -6.816406 21.84375 -11.359375 C 17.550781 -15.910156 14.097656 -21.929688 11.484375 -29.421875 C 8.878906 -36.910156 7.578125 -46.125 7.578125 -57.0625 C 7.578125 -64.8125 8.457031 -72.804688 10.21875 -81.046875 C 11.988281 -89.296875 14.765625 -96.867188 18.546875 -103.765625 C 22.335938 -110.671875 27.304688 -116.351562 33.453125 -120.8125 C 39.597656 -125.28125 47.046875 -127.515625 55.796875 -127.515625 C 57.816406 -127.515625 60.003906 -127.382812 62.359375 -127.125 C 64.722656 -126.875 67 -126.285156 69.1875 -125.359375 C 71.375 -124.441406 73.390625 -123.097656 75.234375 -121.328125 C 77.085938 -119.554688 78.519531 -117.15625 79.53125 -114.125 L 79.53125 -171.703125 Z M 79.53125 -102.015625 C 79.363281 -102.679688 79.023438 -103.5625 78.515625 -104.65625 C 78.015625 -105.75 77.257812 -106.84375 76.25 -107.9375 C 75.238281 -109.03125 73.972656 -109.957031 72.453125 -110.71875 C 70.941406 -111.476562 69.179688 -111.859375 67.171875 -111.859375 C 63.128906 -111.859375 59.632812 -110.128906 56.6875 -106.671875 C 53.738281 -103.222656 51.378906 -98.929688 49.609375 -93.796875 C 47.847656 -88.671875 46.546875 -83.035156 45.703125 -76.890625 C 44.859375 -70.742188 44.4375 -64.894531 44.4375 -59.34375 C 44.4375 -50.414062 45.109375 -43.46875 46.453125 -38.5 C 47.804688 -33.539062 49.445312 -29.921875 51.375 -27.640625 C 53.3125 -25.367188 55.375 -24.023438 57.5625 -23.609375 C 59.757812 -23.191406 61.613281 -22.984375 63.125 -22.984375 C 64.976562 -22.984375 66.867188 -23.441406 68.796875 -24.359375 C 70.734375 -25.285156 72.5 -26.675781 74.09375 -28.53125 C 75.695312 -30.382812 77.003906 -32.695312 78.015625 -35.46875 C 79.023438 -38.25 79.53125 -41.492188 79.53125 -45.203125 Z M 79.53125 -102.015625 "/></g></g></g><g fill="#f8a829" fill-opacity="1"><g transform="translate(49.348213, 264.758611)"><g><path d="M 11.875 -171.703125 L 48.234375 -176.75 L 48.234375 -119.9375 C 52.773438 -123.132812 56.472656 -125.195312 59.328125 -126.125 C 62.191406 -127.050781 65.054688 -127.515625 67.921875 -127.515625 C 73.984375 -127.515625 79.492188 -126.207031 84.453125 -123.59375 C 89.421875 -120.988281 93.710938 -117.160156 97.328125 -112.109375 C 100.953125 -107.054688 103.773438 -100.785156 105.796875 -93.296875 C 107.816406 -85.804688 108.828125 -77.265625 108.828125 -67.671875 C 108.828125 -60.265625 108.066406 -52.476562 106.546875 -44.3125 C 105.035156 -36.144531 102.21875 -28.648438 98.09375 -21.828125 C 93.96875 -15.015625 88.328125 -9.421875 81.171875 -5.046875 C 74.023438 -0.671875 64.8125 1.515625 53.53125 1.515625 C 39.21875 1.515625 28.648438 -2.015625 21.828125 -9.078125 C 15.015625 -16.148438 11.609375 -25.664062 11.609375 -37.625 Z M 82.8125 -65.390625 C 82.8125 -79.023438 80.875 -89.710938 77 -97.453125 C 73.132812 -105.203125 67.921875 -109.078125 61.359375 -109.078125 C 59.335938 -109.078125 56.976562 -108.695312 54.28125 -107.9375 C 51.59375 -107.1875 49.578125 -106.050781 48.234375 -104.53125 L 48.234375 -37.875 C 48.234375 -32.488281 49.410156 -28.660156 51.765625 -26.390625 C 54.117188 -24.117188 57.148438 -22.984375 60.859375 -22.984375 C 65.234375 -22.984375 68.847656 -24.285156 71.703125 -26.890625 C 74.566406 -29.503906 76.796875 -32.867188 78.390625 -36.984375 C 79.992188 -41.109375 81.128906 -45.65625 81.796875 -50.625 C 82.472656 -55.59375 82.8125 -60.515625 82.8125 -65.390625 Z M 82.8125 -65.390625 "/></g></g></g><g fill="#f8a829" fill-opacity="1"><g transform="translate(161.455811, 264.758611)"><g><path d="M 115.890625 -176.75 L 115.890625 -40.40625 C 115.890625 -33.332031 116.859375 -28.660156 118.796875 -26.390625 C 120.734375 -24.117188 124.144531 -22.984375 129.03125 -22.984375 C 133.90625 -22.984375 137.984375 -25.085938 141.265625 -29.296875 C 144.554688 -33.503906 146.453125 -38.804688 146.953125 -45.203125 L 157.5625 -45.203125 C 156.21875 -34.929688 153.859375 -26.722656 150.484375 -20.578125 C 147.117188 -14.429688 143.332031 -9.71875 139.125 -6.4375 C 134.914062 -3.15625 130.625 -1.007812 126.25 0 C 121.875 1.007812 118.003906 1.515625 114.640625 1.515625 C 105.710938 1.515625 98.929688 -0.546875 94.296875 -4.671875 C 89.671875 -8.796875 86.4375 -14.476562 84.59375 -21.71875 C 83.238281 -18.851562 81.632812 -16.03125 79.78125 -13.25 C 77.9375 -10.476562 75.707031 -8 73.09375 -5.8125 C 70.488281 -3.625 67.457031 -1.851562 64 -0.5 C 60.550781 0.84375 56.554688 1.515625 52.015625 1.515625 C 46.628906 1.515625 41.328125 0.503906 36.109375 -1.515625 C 30.890625 -3.535156 26.132812 -6.816406 21.84375 -11.359375 C 17.550781 -15.910156 14.097656 -21.929688 11.484375 -29.421875 C 8.878906 -36.910156 7.578125 -46.125 7.578125 -57.0625 C 7.578125 -64.8125 8.457031 -72.804688 10.21875 -81.046875 C 11.988281 -89.296875 14.765625 -96.867188 18.546875 -103.765625 C 22.335938 -110.671875 27.304688 -116.351562 33.453125 -120.8125 C 39.597656 -125.28125 47.046875 -127.515625 55.796875 -127.515625 C 57.816406 -127.515625 60.003906 -127.382812 62.359375 -127.125 C 64.722656 -126.875 67 -126.285156 69.1875 -125.359375 C 71.375 -124.441406 73.390625 -123.097656 75.234375 -121.328125 C 77.085938 -119.554688 78.519531 -117.15625 79.53125 -114.125 L 79.53125 -171.703125 Z M 79.53125 -102.015625 C 79.363281 -102.679688 79.023438 -103.5625 78.515625 -104.65625 C 78.015625 -105.75 77.257812 -106.84375 76.25 -107.9375 C 75.238281 -109.03125 73.972656 -109.957031 72.453125 -110.71875 C 70.941406 -111.476562 69.179688 -111.859375 67.171875 -111.859375 C 63.128906 -111.859375 59.632812 -110.128906 56.6875 -106.671875 C 53.738281 -103.222656 51.378906 -98.929688 49.609375 -93.796875 C 47.847656 -88.671875 46.546875 -83.035156 45.703125 -76.890625 C 44.859375 -70.742188 44.4375 -64.894531 44.4375 -59.34375 C 44.4375 -50.414062 45.109375 -43.46875 46.453125 -38.5 C 47.804688 -33.539062 49.445312 -29.921875 51.375 -27.640625 C 53.3125 -25.367188 55.375 -24.023438 57.5625 -23.609375 C 59.757812 -23.191406 61.613281 -22.984375 63.125 -22.984375 C 64.976562 -22.984375 66.867188 -23.441406 68.796875 -24.359375 C 70.734375 -25.285156 72.5 -26.675781 74.09375 -28.53125 C 75.695312 -30.382812 77.003906 -32.695312 78.015625 -35.46875 C 79.023438 -38.25 79.53125 -41.492188 79.53125 -45.203125 Z M 79.53125 -102.015625 "/></g></g></g><g clip-path="url(#6e5d9b2f22)"><path fill="#f5c460" d="M 21.882812 73.117188 C 50.109375 74.1875 50.972656 75.058594 52.035156 103.476562 C 53.097656 75.058594 53.960938 74.1875 82.1875 73.117188 C 53.960938 72.050781 53.097656 71.179688 52.035156 42.761719 C 50.972656 71.179688 50.109375 72.050781 21.882812 73.117188 " fill-opacity="1" fill-rule="nonzero"/></g><g clip-path="url(#419312ac2f)"><path fill="#f5c460" d="M 5.039062 97.089844 C 20.761719 97.6875 21.242188 98.171875 21.835938 114 C 22.425781 98.171875 22.90625 97.6875 38.628906 97.089844 C 22.90625 96.496094 22.425781 96.011719 21.835938 80.183594 C 21.242188 96.011719 20.761719 96.496094 5.039062 97.089844 " fill-opacity="1" fill-rule="nonzero"/></g><g clip-path="url(#0a56c461f1)"><path fill="#f5c460" d="M 14.914062 49.441406 C 26.015625 49.859375 26.351562 50.203125 26.769531 61.378906 C 27.1875 50.203125 27.527344 49.859375 38.628906 49.441406 C 27.527344 49.019531 27.1875 48.675781 26.769531 37.5 C 26.351562 48.675781 26.015625 49.019531 14.914062 49.441406 " fill-opacity="1" fill-rule="nonzero"/></g><g fill="#000000" fill-opacity="0.4"><g transform="translate(136.78507, 298.02094)"><g><path d="M 5.515625 0 L 2.859375 0 L 2.859375 -24.796875 L 10.890625 -24.796875 C 13.753906 -24.796875 15.984375 -24.175781 17.578125 -22.9375 C 19.171875 -21.707031 19.96875 -19.914062 19.96875 -17.5625 C 19.96875 -15.207031 19.15625 -13.359375 17.53125 -12.015625 C 15.90625 -10.679688 13.378906 -10.015625 9.953125 -10.015625 L 5.515625 -10.015625 Z M 10.609375 -22.5625 L 5.515625 -22.5625 L 5.515625 -12.296875 L 10.09375 -12.296875 C 12.675781 -12.296875 14.523438 -12.738281 15.640625 -13.625 C 16.765625 -14.507812 17.328125 -15.820312 17.328125 -17.5625 C 17.328125 -19.289062 16.773438 -20.554688 15.671875 -21.359375 C 14.578125 -22.160156 12.890625 -22.5625 10.609375 -22.5625 Z M 10.609375 -22.5625 "/></g></g></g><g fill="#000000" fill-opacity="0.4"><g transform="translate(161.118232, 298.02094)"><g><path d="M 12.46875 -14.953125 C 12.238281 -15.015625 12.003906 -15.054688 11.765625 -15.078125 C 11.535156 -15.109375 11.28125 -15.125 11 -15.125 C 8.976562 -15.125 7.5 -13.929688 6.5625 -11.546875 C 5.632812 -9.160156 5.171875 -5.3125 5.171875 0 L 2.65625 0 L 2.65625 -11.140625 L 2.625 -17.359375 L 5.171875 -17.359375 L 5 -11.171875 C 5.550781 -13.523438 6.382812 -15.195312 7.5 -16.1875 C 8.625 -17.175781 9.828125 -17.671875 11.109375 -17.671875 C 11.472656 -17.671875 11.800781 -17.648438 12.09375 -17.609375 C 12.382812 -17.578125 12.632812 -17.515625 12.84375 -17.421875 Z M 12.46875 -14.953125 "/></g></g></g><g fill="#000000" fill-opacity="0.4"><g transform="translate(177.701609, 298.02094)"><g><path d="M 5.140625 -17.359375 L 5.140625 0 L 2.625 0 L 2.625 -17.359375 Z M 3.953125 -21.296875 C 3.390625 -21.296875 2.957031 -21.46875 2.65625 -21.8125 C 2.351562 -22.164062 2.203125 -22.578125 2.203125 -23.046875 C 2.203125 -23.515625 2.359375 -23.921875 2.671875 -24.265625 C 2.984375 -24.617188 3.410156 -24.796875 3.953125 -24.796875 C 4.484375 -24.796875 4.90625 -24.617188 5.21875 -24.265625 C 5.539062 -23.921875 5.703125 -23.515625 5.703125 -23.046875 C 5.703125 -22.578125 5.539062 -22.164062 5.21875 -21.8125 C 4.90625 -21.46875 4.484375 -21.296875 3.953125 -21.296875 Z M 3.953125 -21.296875 "/></g></g></g><g fill="#000000" fill-opacity="0.4"><g transform="translate(188.908982, 298.02094)"><g><path d="M 2.625 0 L 2.625 -17.359375 L 5.203125 -17.359375 L 5 -11.421875 C 5.570312 -13.441406 6.46875 -14.988281 7.6875 -16.0625 C 8.914062 -17.132812 10.359375 -17.671875 12.015625 -17.671875 C 13.785156 -17.671875 15.144531 -17.050781 16.09375 -15.8125 C 17.050781 -14.582031 17.53125 -12.804688 17.53125 -10.484375 L 17.46875 0 L 14.90625 0 L 14.984375 -10.15625 C 14.984375 -11.863281 14.695312 -13.144531 14.125 -14 C 13.550781 -14.863281 12.640625 -15.296875 11.390625 -15.296875 C 10.203125 -15.296875 9.132812 -14.820312 8.1875 -13.875 C 7.25 -12.9375 6.503906 -11.347656 5.953125 -9.109375 C 5.410156 -6.878906 5.140625 -3.84375 5.140625 0 Z M 2.625 0 "/></g></g></g><g fill="#000000" fill-opacity="0.4"><g transform="translate(212.299591, 298.02094)"><g><path d="M 9.21875 0.28125 C 7.238281 0.28125 5.75 -0.25 4.75 -1.3125 C 3.75 -2.375 3.257812 -3.785156 3.28125 -5.546875 L 3.390625 -15.1875 L 0.3125 -15.1875 L 0.3125 -17.359375 L 3.421875 -17.359375 L 3.453125 -20.984375 L 6 -20.984375 L 5.96875 -17.359375 L 12.015625 -17.359375 L 12.015625 -15.1875 L 5.9375 -15.1875 L 5.828125 -5.734375 C 5.828125 -4.609375 6.113281 -3.707031 6.6875 -3.03125 C 7.257812 -2.363281 8.148438 -2.03125 9.359375 -2.03125 C 9.890625 -2.03125 10.390625 -2.09375 10.859375 -2.21875 C 11.328125 -2.34375 11.816406 -2.601562 12.328125 -3 L 13.171875 -0.984375 C 12.648438 -0.535156 12.039062 -0.210938 11.34375 -0.015625 C 10.644531 0.179688 9.9375 0.28125 9.21875 0.28125 Z M 9.21875 0.28125 "/></g></g></g><g fill="#000000" fill-opacity="0.4"><g transform="translate(228.603666, 298.02094)"><g><path d="M 17.5 -17.359375 L 17.5 0 L 14.90625 0 L 15.015625 -4.078125 C 14.359375 -2.734375 13.484375 -1.671875 12.390625 -0.890625 C 11.296875 -0.109375 10.050781 0.28125 8.65625 0.28125 C 7.1875 0.28125 5.953125 -0.0625 4.953125 -0.75 C 3.953125 -1.4375 3.179688 -2.390625 2.640625 -3.609375 C 2.109375 -4.835938 1.84375 -6.253906 1.84375 -7.859375 C 1.84375 -9.785156 2.191406 -11.488281 2.890625 -12.96875 C 3.597656 -14.445312 4.578125 -15.597656 5.828125 -16.421875 C 7.085938 -17.253906 8.546875 -17.671875 10.203125 -17.671875 C 11.359375 -17.671875 12.378906 -17.398438 13.265625 -16.859375 C 14.148438 -16.328125 14.800781 -15.644531 15.21875 -14.8125 L 15.578125 -17.359375 Z M 10.265625 -15.359375 C 8.515625 -15.359375 7.113281 -14.695312 6.0625 -13.375 C 5.019531 -12.050781 4.5 -10.28125 4.5 -8.0625 C 4.5 -6.175781 4.898438 -4.703125 5.703125 -3.640625 C 6.515625 -2.585938 7.617188 -2.0625 9.015625 -2.0625 C 10.148438 -2.0625 11.171875 -2.394531 12.078125 -3.0625 C 12.984375 -3.738281 13.691406 -4.671875 14.203125 -5.859375 C 14.722656 -7.046875 14.984375 -8.410156 14.984375 -9.953125 C 14.984375 -11.628906 14.5625 -12.945312 13.71875 -13.90625 C 12.882812 -14.875 11.734375 -15.359375 10.265625 -15.359375 Z M 10.265625 -15.359375 "/></g></g></g><g fill="#000000" fill-opacity="0.4"><g transform="translate(252.16884, 298.02094)"><g><path d="M 2.625 0 L 2.625 -25.84375 L 5.171875 -25.84375 L 5.171875 -17.390625 L 5.0625 -13.203125 C 5.6875 -14.578125 6.546875 -15.664062 7.640625 -16.46875 C 8.742188 -17.269531 10.015625 -17.671875 11.453125 -17.671875 C 12.921875 -17.671875 14.160156 -17.328125 15.171875 -16.640625 C 16.179688 -15.953125 16.945312 -14.992188 17.46875 -13.765625 C 18 -12.546875 18.265625 -11.144531 18.265625 -9.5625 C 18.265625 -7.632812 17.914062 -5.929688 17.21875 -4.453125 C 16.519531 -2.972656 15.539062 -1.8125 14.28125 -0.96875 C 13.019531 -0.132812 11.566406 0.28125 9.921875 0.28125 C 8.753906 0.28125 7.726562 0.0078125 6.84375 -0.53125 C 5.957031 -1.082031 5.316406 -1.789062 4.921875 -2.65625 L 4.546875 0 Z M 9.84375 -2.0625 C 11.59375 -2.0625 12.988281 -2.726562 14.03125 -4.0625 C 15.082031 -5.40625 15.609375 -7.179688 15.609375 -9.390625 C 15.609375 -11.253906 15.207031 -12.710938 14.40625 -13.765625 C 13.601562 -14.828125 12.503906 -15.359375 11.109375 -15.359375 C 9.960938 -15.359375 8.941406 -15.019531 8.046875 -14.34375 C 7.148438 -13.675781 6.441406 -12.75 5.921875 -11.5625 C 5.398438 -10.375 5.140625 -9.023438 5.140625 -7.515625 C 5.140625 -5.804688 5.5625 -4.46875 6.40625 -3.5 C 7.257812 -2.539062 8.40625 -2.0625 9.84375 -2.0625 Z M 9.84375 -2.0625 "/></g></g></g><g fill="#000000" fill-opacity="0.4"><g transform="translate(275.733985, 298.02094)"><g><path d="M 6.875 0.28125 C 5.4375 0.28125 4.367188 -0.113281 3.671875 -0.90625 C 2.972656 -1.695312 2.625 -2.742188 2.625 -4.046875 L 2.625 -25.84375 L 5.171875 -25.84375 L 5.171875 -4.359375 C 5.171875 -3.597656 5.332031 -3.019531 5.65625 -2.625 C 5.976562 -2.226562 6.515625 -2.03125 7.265625 -2.03125 C 7.609375 -2.03125 7.941406 -2.082031 8.265625 -2.1875 C 8.597656 -2.289062 8.859375 -2.398438 9.046875 -2.515625 L 9.75 -0.59375 C 9.414062 -0.3125 8.988281 -0.0976562 8.46875 0.046875 C 7.945312 0.203125 7.414062 0.28125 6.875 0.28125 Z M 6.875 0.28125 "/></g></g></g><g fill="#000000" fill-opacity="0.4"><g transform="translate(288.442442, 298.02094)"><g><path d="M 10.4375 0.28125 C 7.757812 0.28125 5.65625 -0.484375 4.125 -2.015625 C 2.601562 -3.554688 1.84375 -5.703125 1.84375 -8.453125 C 1.84375 -10.242188 2.203125 -11.835938 2.921875 -13.234375 C 3.648438 -14.628906 4.632812 -15.71875 5.875 -16.5 C 7.125 -17.28125 8.539062 -17.671875 10.125 -17.671875 C 12.5 -17.671875 14.332031 -16.84375 15.625 -15.1875 C 16.914062 -13.539062 17.375 -11.070312 17 -7.78125 L 4.46875 -7.78125 C 4.539062 -5.925781 5.101562 -4.507812 6.15625 -3.53125 C 7.21875 -2.550781 8.703125 -2.0625 10.609375 -2.0625 C 11.546875 -2.0625 12.441406 -2.265625 13.296875 -2.671875 C 14.160156 -3.078125 14.894531 -3.710938 15.5 -4.578125 L 17.109375 -3.109375 C 15.546875 -0.847656 13.320312 0.28125 10.4375 0.28125 Z M 10.15625 -15.609375 C 9.09375 -15.609375 8.15625 -15.351562 7.34375 -14.84375 C 6.539062 -14.332031 5.894531 -13.640625 5.40625 -12.765625 C 4.914062 -11.890625 4.613281 -10.914062 4.5 -9.84375 L 14.765625 -9.84375 C 14.859375 -11.875 14.460938 -13.34375 13.578125 -14.25 C 12.691406 -15.15625 11.550781 -15.609375 10.15625 -15.609375 Z M 10.15625 -15.609375 "/></g></g></g><g fill="#000000" fill-opacity="0.4"><g transform="translate(310.576316, 298.02094)"><g><path d="M 8.203125 0.28125 C 6.035156 0.28125 4.359375 -0.164062 3.171875 -1.0625 C 1.984375 -1.957031 1.300781 -3.234375 1.125 -4.890625 L 3.359375 -5.40625 C 3.515625 -4.175781 3.984375 -3.269531 4.765625 -2.6875 C 5.546875 -2.101562 6.691406 -1.8125 8.203125 -1.8125 C 9.484375 -1.8125 10.457031 -2.070312 11.125 -2.59375 C 11.789062 -3.125 12.125 -3.804688 12.125 -4.640625 C 12.125 -5.429688 11.785156 -6.019531 11.109375 -6.40625 C 10.429688 -6.789062 9.367188 -7.125 7.921875 -7.40625 C 6.710938 -7.632812 5.675781 -7.925781 4.8125 -8.28125 C 3.957031 -8.644531 3.296875 -9.15625 2.828125 -9.8125 C 2.359375 -10.46875 2.125 -11.34375 2.125 -12.4375 C 2.125 -13.414062 2.390625 -14.300781 2.921875 -15.09375 C 3.460938 -15.882812 4.203125 -16.503906 5.140625 -16.953125 C 6.085938 -17.410156 7.15625 -17.640625 8.34375 -17.640625 C 9.976562 -17.640625 11.3125 -17.25 12.34375 -16.46875 C 13.382812 -15.6875 14.019531 -14.609375 14.25 -13.234375 L 12.078125 -12.671875 C 11.734375 -14.585938 10.476562 -15.546875 8.3125 -15.546875 C 7.195312 -15.546875 6.304688 -15.269531 5.640625 -14.71875 C 4.972656 -14.175781 4.640625 -13.4375 4.640625 -12.5 C 4.640625 -11.726562 4.929688 -11.113281 5.515625 -10.65625 C 6.097656 -10.207031 7.144531 -9.820312 8.65625 -9.5 C 9.894531 -9.238281 10.957031 -8.941406 11.84375 -8.609375 C 12.726562 -8.273438 13.40625 -7.816406 13.875 -7.234375 C 14.351562 -6.648438 14.601562 -5.84375 14.625 -4.8125 C 14.625 -3.84375 14.359375 -2.972656 13.828125 -2.203125 C 13.296875 -1.429688 12.546875 -0.820312 11.578125 -0.375 C 10.609375 0.0625 9.484375 0.28125 8.203125 0.28125 Z M 8.203125 0.28125 "/></g></g></g><g fill="#000000" fill-opacity="0.4"><g transform="translate(329.812761, 298.02094)"><g/></g></g><g fill="#ffffff" fill-opacity="1"><g transform="translate(135.241577, 296.477433)"><g><path d="M 5.515625 0 L 2.859375 0 L 2.859375 -24.796875 L 10.890625 -24.796875 C 13.753906 -24.796875 15.984375 -24.175781 17.578125 -22.9375 C 19.171875 -21.707031 19.96875 -19.914062 19.96875 -17.5625 C 19.96875 -15.207031 19.15625 -13.359375 17.53125 -12.015625 C 15.90625 -10.679688 13.378906 -10.015625 9.953125 -10.015625 L 5.515625 -10.015625 Z M 10.609375 -22.5625 L 5.515625 -22.5625 L 5.515625 -12.296875 L 10.09375 -12.296875 C 12.675781 -12.296875 14.523438 -12.738281 15.640625 -13.625 C 16.765625 -14.507812 17.328125 -15.820312 17.328125 -17.5625 C 17.328125 -19.289062 16.773438 -20.554688 15.671875 -21.359375 C 14.578125 -22.160156 12.890625 -22.5625 10.609375 -22.5625 Z M 10.609375 -22.5625 "/></g></g></g><g fill="#ffffff" fill-opacity="1"><g transform="translate(159.574741, 296.477433)"><g><path d="M 12.46875 -14.953125 C 12.238281 -15.015625 12.003906 -15.054688 11.765625 -15.078125 C 11.535156 -15.109375 11.28125 -15.125 11 -15.125 C 8.976562 -15.125 7.5 -13.929688 6.5625 -11.546875 C 5.632812 -9.160156 5.171875 -5.3125 5.171875 0 L 2.65625 0 L 2.65625 -11.140625 L 2.625 -17.359375 L 5.171875 -17.359375 L 5 -11.171875 C 5.550781 -13.523438 6.382812 -15.195312 7.5 -16.1875 C 8.625 -17.175781 9.828125 -17.671875 11.109375 -17.671875 C 11.472656 -17.671875 11.800781 -17.648438 12.09375 -17.609375 C 12.382812 -17.578125 12.632812 -17.515625 12.84375 -17.421875 Z M 12.46875 -14.953125 "/></g></g></g><g fill="#ffffff" fill-opacity="1"><g transform="translate(176.158119, 296.477433)"><g><path d="M 5.140625 -17.359375 L 5.140625 0 L 2.625 0 L 2.625 -17.359375 Z M 3.953125 -21.296875 C 3.390625 -21.296875 2.957031 -21.46875 2.65625 -21.8125 C 2.351562 -22.164062 2.203125 -22.578125 2.203125 -23.046875 C 2.203125 -23.515625 2.359375 -23.921875 2.671875 -24.265625 C 2.984375 -24.617188 3.410156 -24.796875 3.953125 -24.796875 C 4.484375 -24.796875 4.90625 -24.617188 5.21875 -24.265625 C 5.539062 -23.921875 5.703125 -23.515625 5.703125 -23.046875 C 5.703125 -22.578125 5.539062 -22.164062 5.21875 -21.8125 C 4.90625 -21.46875 4.484375 -21.296875 3.953125 -21.296875 Z M 3.953125 -21.296875 "/></g></g></g><g fill="#ffffff" fill-opacity="1"><g transform="translate(187.365506, 296.477433)"><g><path d="M 2.625 0 L 2.625 -17.359375 L 5.203125 -17.359375 L 5 -11.421875 C 5.570312 -13.441406 6.46875 -14.988281 7.6875 -16.0625 C 8.914062 -17.132812 10.359375 -17.671875 12.015625 -17.671875 C 13.785156 -17.671875 15.144531 -17.050781 16.09375 -15.8125 C 17.050781 -14.582031 17.53125 -12.804688 17.53125 -10.484375 L 17.46875 0 L 14.90625 0 L 14.984375 -10.15625 C 14.984375 -11.863281 14.695312 -13.144531 14.125 -14 C 13.550781 -14.863281 12.640625 -15.296875 11.390625 -15.296875 C 10.203125 -15.296875 9.132812 -14.820312 8.1875 -13.875 C 7.25 -12.9375 6.503906 -11.347656 5.953125 -9.109375 C 5.410156 -6.878906 5.140625 -3.84375 5.140625 0 Z M 2.625 0 "/></g></g></g><g fill="#ffffff" fill-opacity="1"><g transform="translate(210.756099, 296.477433)"><g><path d="M 9.21875 0.28125 C 7.238281 0.28125 5.75 -0.25 4.75 -1.3125 C 3.75 -2.375 3.257812 -3.785156 3.28125 -5.546875 L 3.390625 -15.1875 L 0.3125 -15.1875 L 0.3125 -17.359375 L 3.421875 -17.359375 L 3.453125 -20.984375 L 6 -20.984375 L 5.96875 -17.359375 L 12.015625 -17.359375 L 12.015625 -15.1875 L 5.9375 -15.1875 L 5.828125 -5.734375 C 5.828125 -4.609375 6.113281 -3.707031 6.6875 -3.03125 C 7.257812 -2.363281 8.148438 -2.03125 9.359375 -2.03125 C 9.890625 -2.03125 10.390625 -2.09375 10.859375 -2.21875 C 11.328125 -2.34375 11.816406 -2.601562 12.328125 -3 L 13.171875 -0.984375 C 12.648438 -0.535156 12.039062 -0.210938 11.34375 -0.015625 C 10.644531 0.179688 9.9375 0.28125 9.21875 0.28125 Z M 9.21875 0.28125 "/></g></g></g><g fill="#ffffff" fill-opacity="1"><g transform="translate(227.060176, 296.477433)"><g><path d="M 17.5 -17.359375 L 17.5 0 L 14.90625 0 L 15.015625 -4.078125 C 14.359375 -2.734375 13.484375 -1.671875 12.390625 -0.890625 C 11.296875 -0.109375 10.050781 0.28125 8.65625 0.28125 C 7.1875 0.28125 5.953125 -0.0625 4.953125 -0.75 C 3.953125 -1.4375 3.179688 -2.390625 2.640625 -3.609375 C 2.109375 -4.835938 1.84375 -6.253906 1.84375 -7.859375 C 1.84375 -9.785156 2.191406 -11.488281 2.890625 -12.96875 C 3.597656 -14.445312 4.578125 -15.597656 5.828125 -16.421875 C 7.085938 -17.253906 8.546875 -17.671875 10.203125 -17.671875 C 11.359375 -17.671875 12.378906 -17.398438 13.265625 -16.859375 C 14.148438 -16.328125 14.800781 -15.644531 15.21875 -14.8125 L 15.578125 -17.359375 Z M 10.265625 -15.359375 C 8.515625 -15.359375 7.113281 -14.695312 6.0625 -13.375 C 5.019531 -12.050781 4.5 -10.28125 4.5 -8.0625 C 4.5 -6.175781 4.898438 -4.703125 5.703125 -3.640625 C 6.515625 -2.585938 7.617188 -2.0625 9.015625 -2.0625 C 10.148438 -2.0625 11.171875 -2.394531 12.078125 -3.0625 C 12.984375 -3.738281 13.691406 -4.671875 14.203125 -5.859375 C 14.722656 -7.046875 14.984375 -8.410156 14.984375 -9.953125 C 14.984375 -11.628906 14.5625 -12.945312 13.71875 -13.90625 C 12.882812 -14.875 11.734375 -15.359375 10.265625 -15.359375 Z M 10.265625 -15.359375 "/></g></g></g><g fill="#ffffff" fill-opacity="1"><g transform="translate(250.625335, 296.477433)"><g><path d="M 2.625 0 L 2.625 -25.84375 L 5.171875 -25.84375 L 5.171875 -17.390625 L 5.0625 -13.203125 C 5.6875 -14.578125 6.546875 -15.664062 7.640625 -16.46875 C 8.742188 -17.269531 10.015625 -17.671875 11.453125 -17.671875 C 12.921875 -17.671875 14.160156 -17.328125 15.171875 -16.640625 C 16.179688 -15.953125 16.945312 -14.992188 17.46875 -13.765625 C 18 -12.546875 18.265625 -11.144531 18.265625 -9.5625 C 18.265625 -7.632812 17.914062 -5.929688 17.21875 -4.453125 C 16.519531 -2.972656 15.539062 -1.8125 14.28125 -0.96875 C 13.019531 -0.132812 11.566406 0.28125 9.921875 0.28125 C 8.753906 0.28125 7.726562 0.0078125 6.84375 -0.53125 C 5.957031 -1.082031 5.316406 -1.789062 4.921875 -2.65625 L 4.546875 0 Z M 9.84375 -2.0625 C 11.59375 -2.0625 12.988281 -2.726562 14.03125 -4.0625 C 15.082031 -5.40625 15.609375 -7.179688 15.609375 -9.390625 C 15.609375 -11.253906 15.207031 -12.710938 14.40625 -13.765625 C 13.601562 -14.828125 12.503906 -15.359375 11.109375 -15.359375 C 9.960938 -15.359375 8.941406 -15.019531 8.046875 -14.34375 C 7.148438 -13.675781 6.441406 -12.75 5.921875 -11.5625 C 5.398438 -10.375 5.140625 -9.023438 5.140625 -7.515625 C 5.140625 -5.804688 5.5625 -4.46875 6.40625 -3.5 C 7.257812 -2.539062 8.40625 -2.0625 9.84375 -2.0625 Z M 9.84375 -2.0625 "/></g></g></g><g fill="#ffffff" fill-opacity="1"><g transform="translate(274.19048, 296.477433)"><g><path d="M 6.875 0.28125 C 5.4375 0.28125 4.367188 -0.113281 3.671875 -0.90625 C 2.972656 -1.695312 2.625 -2.742188 2.625 -4.046875 L 2.625 -25.84375 L 5.171875 -25.84375 L 5.171875 -4.359375 C 5.171875 -3.597656 5.332031 -3.019531 5.65625 -2.625 C 5.976562 -2.226562 6.515625 -2.03125 7.265625 -2.03125 C 7.609375 -2.03125 7.941406 -2.082031 8.265625 -2.1875 C 8.597656 -2.289062 8.859375 -2.398438 9.046875 -2.515625 L 9.75 -0.59375 C 9.414062 -0.3125 8.988281 -0.0976562 8.46875 0.046875 C 7.945312 0.203125 7.414062 0.28125 6.875 0.28125 Z M 6.875 0.28125 "/></g></g></g><g fill="#ffffff" fill-opacity="1"><g transform="translate(286.898935, 296.477433)"><g><path d="M 10.4375 0.28125 C 7.757812 0.28125 5.65625 -0.484375 4.125 -2.015625 C 2.601562 -3.554688 1.84375 -5.703125 1.84375 -8.453125 C 1.84375 -10.242188 2.203125 -11.835938 2.921875 -13.234375 C 3.648438 -14.628906 4.632812 -15.71875 5.875 -16.5 C 7.125 -17.28125 8.539062 -17.671875 10.125 -17.671875 C 12.5 -17.671875 14.332031 -16.84375 15.625 -15.1875 C 16.914062 -13.539062 17.375 -11.070312 17 -7.78125 L 4.46875 -7.78125 C 4.539062 -5.925781 5.101562 -4.507812 6.15625 -3.53125 C 7.21875 -2.550781 8.703125 -2.0625 10.609375 -2.0625 C 11.546875 -2.0625 12.441406 -2.265625 13.296875 -2.671875 C 14.160156 -3.078125 14.894531 -3.710938 15.5 -4.578125 L 17.109375 -3.109375 C 15.546875 -0.847656 13.320312 0.28125 10.4375 0.28125 Z M 10.15625 -15.609375 C 9.09375 -15.609375 8.15625 -15.351562 7.34375 -14.84375 C 6.539062 -14.332031 5.894531 -13.640625 5.40625 -12.765625 C 4.914062 -11.890625 4.613281 -10.914062 4.5 -9.84375 L 14.765625 -9.84375 C 14.859375 -11.875 14.460938 -13.34375 13.578125 -14.25 C 12.691406 -15.15625 11.550781 -15.609375 10.15625 -15.609375 Z M 10.15625 -15.609375 "/></g></g></g><g fill="#ffffff" fill-opacity="1"><g transform="translate(309.03284, 296.477433)"><g><path d="M 8.203125 0.28125 C 6.035156 0.28125 4.359375 -0.164062 3.171875 -1.0625 C 1.984375 -1.957031 1.300781 -3.234375 1.125 -4.890625 L 3.359375 -5.40625 C 3.515625 -4.175781 3.984375 -3.269531 4.765625 -2.6875 C 5.546875 -2.101562 6.691406 -1.8125 8.203125 -1.8125 C 9.484375 -1.8125 10.457031 -2.070312 11.125 -2.59375 C 11.789062 -3.125 12.125 -3.804688 12.125 -4.640625 C 12.125 -5.429688 11.785156 -6.019531 11.109375 -6.40625 C 10.429688 -6.789062 9.367188 -7.125 7.921875 -7.40625 C 6.710938 -7.632812 5.675781 -7.925781 4.8125 -8.28125 C 3.957031 -8.644531 3.296875 -9.15625 2.828125 -9.8125 C 2.359375 -10.46875 2.125 -11.34375 2.125 -12.4375 C 2.125 -13.414062 2.390625 -14.300781 2.921875 -15.09375 C 3.460938 -15.882812 4.203125 -16.503906 5.140625 -16.953125 C 6.085938 -17.410156 7.15625 -17.640625 8.34375 -17.640625 C 9.976562 -17.640625 11.3125 -17.25 12.34375 -16.46875 C 13.382812 -15.6875 14.019531 -14.609375 14.25 -13.234375 L 12.078125 -12.671875 C 11.734375 -14.585938 10.476562 -15.546875 8.3125 -15.546875 C 7.195312 -15.546875 6.304688 -15.269531 5.640625 -14.71875 C 4.972656 -14.175781 4.640625 -13.4375 4.640625 -12.5 C 4.640625 -11.726562 4.929688 -11.113281 5.515625 -10.65625 C 6.097656 -10.207031 7.144531 -9.820312 8.65625 -9.5 C 9.894531 -9.238281 10.957031 -8.941406 11.84375 -8.609375 C 12.726562 -8.273438 13.40625 -7.816406 13.875 -7.234375 C 14.351562 -6.648438 14.601562 -5.84375 14.625 -4.8125 C 14.625 -3.84375 14.359375 -2.972656 13.828125 -2.203125 C 13.296875 -1.429688 12.546875 -0.820312 11.578125 -0.375 C 10.609375 0.0625 9.484375 0.28125 8.203125 0.28125 Z M 8.203125 0.28125 "/></g></g></g><g fill="#ffffff" fill-opacity="1"><g transform="translate(328.269257, 296.477433)"><g/></g></g></svg>